<svg xmlns="http://www.w3.org/2000/svg" enable-background="new 0 0 1920 1080" viewBox="0 0 1920 1080"><path fill="#2a94f4" d="M1370.5,1080H790.7c-11.4,0-20.6-9.2-20.6-20.6V314.6c0-171.5,139-310.5,310.5-310.5h0
	c171.5,0,310.5,139,310.5,310.5v744.8C1391.2,1070.8,1381.9,1080,1370.5,1080z" opacity=".1"/><rect width="88.7" height="7" x="1096.1" y="114.8" fill="#ffbe55" transform="rotate(47.925 1140.414 118.333)"/><rect width="54.9" height="20.4" x="1104.5" y="115.7" fill="#ffbe55" transform="rotate(47.925 1131.994 125.934)"/><path fill="#ffbe55" d="M970,97.7c0,0-58.7,43.1-51.7,40.9c0,0,67.8,14.4,70-9.8S977.7,92,970,97.7z"/><path fill="#020202" d="M970,97.7c0,0-58.7,43.1-51.7,40.9c0,0,67.8,14.4,70-9.8S977.7,92,970,97.7z" opacity=".19"/><path fill="#ffbe55" d="M1284.5,155.4c0,0,32.1,90.4,21.8,132.6l-142.3-25.4C1163.9,262.5,1250.2,148.3,1284.5,155.4z"/><path d="M1284.5,155.4c0,0,32.1,90.4,21.8,132.6l-142.3-25.4C1163.9,262.5,1250.2,148.3,1284.5,155.4z" opacity=".13"/><rect width="474" height="263.9" x="832.2" y="816.1" fill="#d3d3d3"/><ellipse cx="1069.2" cy="816.1" fill="#f7f7f7" rx="237" ry="61"/><path fill="#f2f2f2" d="M1266.1,816.4c0-16.1-85.1-29.2-190.1-29.2c-105,0-190.1,13.1-190.1,29.2s85.1,29.2,190.1,29.2
	c1.5,0,3.1,0,4.6,0c0,0,0,0,0,0c0,6.1,32.4,11.1,72.4,11.1c40,0,72.4-5,72.4-11.1c0-3-7.8-5.8-20.5-7.8
	C1242.6,832.5,1266.1,824.8,1266.1,816.4z"/><path fill="#fcd2b1" d="M971.3 144.5l-19.1-92.3c0 0 13.2-2.6 17.8 9.2 10.1 25.9 26 57.6 25.9 76.9C995.7 168.5 971.3 144.5 971.3 144.5zM1244.3 176.7L1303 127l18.1 4.4c0 0-41.3 60.3-60.2 70.8C1241.9 212.7 1244.3 176.7 1244.3 176.7z"/><path fill="#fcd2b1" d="M1306.3,141.5c0,0-5.2-15.2-2.7-19c2.5-3.8,12.7-17.3,12.7-17.3l2.9-3.2c0,0,5.4,1.2-1.5,10.1
				c-6.9,9-1.1,6.4-1.1,6.4l9.5-5.8l12.2-6.2l5-3.4c0,0,12.4,2.9,10.8,9.2c-2.1,8.9-18.7,22.3-18.7,22.3l-26.3,10.5L1306.3,141.5z"/><path fill="#e9d6b8" d="M1333.6,121.3"/><path fill="#fcd2b1" d="M961.5,66.9c0,0,10.2-12.4,9.2-16.9c-1-4.5-5.8-20.6-5.8-20.6l-1.6-4c0,0-5.5-0.7-2.1,10
				c3.4,10.8-1.2,6.4-1.2,6.4l-6.8-8.7c0,0,0.4-4-0.9-3.6c-8.4,2.8-10.7,9.1-11,14.2l-0.2,3.6c-0.1,1.7,0.4,3.4,1.6,4.6l15.1,17.4
				L961.5,66.9z"/><polygon fill="#b0bfde" points="1070.5 204.8 1012.4 162 1004.4 144.5 1009.2 143.7 999 127.3 963.3 137 968.7 166.3 974 165.9 979.5 182.4 987.4 184.8 1035.4 259.4"/><g><path fill="#0b4870" d="M1136.5 785.6l-1.2 18.8 1.1 15.9 5.7 5.1 4.5 2.1 1 2.8 14.8 13.2c4.1 2.6 10.2 4.5 18.1 3.8 2.7-.2.1-7.7-.6-8.9-4.3-6.8-11.2-14.5-11.2-14.5l-10.4-17.4-11.5-21.6L1136.5 785.6zM1010 768.5l3 8 .9 8.7-2.3 13.3-7.5 0-5.3-2-4 2c0 0-21.3 1-29.1.1-13-1.5-19.8-3.8-22-6.7-1.2-1.6 5.2-3.4 7.2-3.4 11.7 0 24.8-5.5 24.8-5.5l11-9.1 2.9-7.2L1010 768.5z"/><path fill="#f2f2f2" d="M1154.4,213.8l-94.3-17.7c0,0-80,37.2-71,197.3c0,0.8,117.3,32.6,117.1,2
			C1105.5,319,1154.4,213.8,1154.4,213.8z"/><polygon fill="#0e538c" points="1101.7 397.2 1163.9 806.7 1133.5 803.8 1095.5 664.9 1087.4 623.5 1042 459 1036.7 390"/><polygon fill="#0e538c" points="1015.4 770.7 1008.2 627.4 1027.6 551.2 1053 446.3 1045.4 390.8 989.5 385.3 982.9 426.3 965.2 596.3 961.3 637.6 978.9 774.5"/><path fill="#ffe3ca" d="M1094.1,179.2c-4.7,20.8-14.3,31.9-13.9,33.4l3.6-2l22.5,3.2l1.5-4.3c0-0.8,3.7,2.5,4,1.1
				c2.1-8.6,9.3-26.6,11.2-29.4C1125.3,177.9,1096.9,166.9,1094.1,179.2z"/><path fill="#ffe3ca" d="M1098.4,123.6l-18.4,33.2c-7,12.6-2.2,22.5,8.1,32.6c2.3,2.3,22.1,7.6,29.3-2.6
				c7.1-10.2,20.3-36.6,20.3-36.6s1-10.5-18-14.1C1100.6,132.5,1098.4,123.6,1098.4,123.6z"/><path fill="#0b4870" d="M1106.9,112.4c-2.6-0.6-7.3-0.9-10.2,2.4c-3.1,3.4-6.6,15.8-3.6,18.5c2.9,2.6,28.8,9.8,32,10.3
				c3.2,0.5,8.9,2.2,13.5-0.7c3-1.8-2.1-12.1-7.8-13.3C1116.2,126.5,1116.5,114.6,1106.9,112.4z"/><path fill="#0b4870" d="M1132.8,140.1c0,0-0.8,0.7-2.1,1.8c-8.5,7.5-13.5,18.2-13.6,29.6v0c-0.6,1.6,0.1,3.4,1.6,4.2l0,0l2.4,1.3
				c1.4,0.7,3.1,0.4,4.1-0.7c5.5-6.1,21.6-24.9,17-31C1136.8,137.8,1134.1,138.6,1132.8,140.1z"/><path fill="#ffe3ca" d="M1117.8,177.9c-1,1.9-0.3,4.2,1.6,5.3l2,1.1c1.9,1,4.3,0.3,5.4-1.5l4.4-8c1.1-1.9,0.3-4.2-1.6-5.3l-2-1.1
				c-1.9-1-4.3-0.3-5.4,1.5L1117.8,177.9z"/><path fill="#0b4870" d="M1086.2,211.5c0,0-63.9,66.5-79.7,155.4c-1.2,7,4.3,13.8,4.3,13.8l12.7-7
			C1023.5,373.7,1053.3,276.5,1086.2,211.5z"/><polygon fill="#d3d3d3" points="1086.9 211.1 1084.9 224.3 1115 210.6 1114.2 207"/><polygon fill="#d3d3d3" points="1082.7 202.7 1074.3 216.2 1086.7 210.8"/></g><path fill="#ffbe55" d="M1127.2,205.8c0,0,92.4-15.6,145.8-53.1c0,0-9.6,118.2,33.2,135.2c0,0-143.3-8-165.9-21.7
	c0,0,19.6,327,33.2,373.8c0,0-93,5.7-120.6,0c-27.6-5.7-95.9-6-105.6-41.7c0,0,23.1-250,40.9-321.8c0,0-68.8-114.2-70-138
	c0,0,64.2-15.7,65.4-44.8c0,0,26.7,58.5,83.6,103.7c0,0-6.2,4.2-8,34.3c-0.6,9.6,10.2,15.5,18,9.9L1127.2,205.8z"/><g><path fill="#f7f7f7" d="M934.3,89.8l-0.9-0.4c-3.3-1.4-4.9-5.3-3.4-8.7l33.4-76.9c1.4-3.3,5.3-4.9,8.7-3.4l0.9,0.4
		c3.3,1.4,4.9,5.3,3.4,8.7l-33.4,76.9C941.5,89.7,937.6,91.2,934.3,89.8z"/><ellipse cx="970.4" cy="5.2" fill="#d3d3d3" rx="2.1" ry="5.1" transform="rotate(-64.519 970.492 5.207)"/></g><g><path fill="#fcd2b1" d="M961.5,66.9c0,0,10.2-12.4,9.2-16.9c-1-4.5-5.8-20.6-5.8-20.6l-1.6-4c0,0-5.5-0.7-2.1,10
		c3.4,10.8-0.6,11.1-0.6,11.1l-3,22.9L961.5,66.9z"/></g><path fill="#fcd2b1" d="M952.2,29.6c0,0,8.5,3.2,6.1,9.7c-2.4,6.5-13,13.8-15.8,12.7S947.6,34.4,952.2,29.6z"/></svg>