<svg xmlns="http://www.w3.org/2000/svg" enable-background="new 0 0 64 64" viewBox="0 0 64 64"><path fill="#e8aa60" d="M32.73,15h-1.46V0.73C31.27,0.33,31.6,0,32,0l0,0c0.4,0,0.73,0.33,0.73,0.73V15z"/><path fill="#51bf9f" d="M42.71,7.62c-3.99-3.63-5.99,3.63-9.98,0c0-2.63,0-3.94,0-6.57c3.99,3.63,5.99-3.63,9.98,0
						C42.71,3.68,42.71,4.99,42.71,7.62z"/><rect width="59.39" height="3.32" x="2.31" y="29.66" fill="#b33254"/><rect width="59.39" height="31.02" x="2.31" y="32.98" fill="#7ca3c2"/><rect width="26.24" height="23.64" x="18.88" y="32.98" fill="#5e5e61"/><path fill="#d3d3d3" d="M20.06 32.98h-6.89v1.38c0 .52.42.95.95.95h5c.52 0 .95-.42.95-.95V32.98zM19.11 54.29h-5c-.52 0-.95.42-.95.95v1.38h6.89v-1.38C20.06 54.71 19.64 54.29 19.11 54.29z"/><rect width="4.53" height="18.98" x="14.35" y="35.31" fill="#e1e2e0"/><path fill="#d3d3d3" d="M35.45 32.98h-6.89v1.38c0 .52.42.95.95.95h5c.52 0 .95-.42.95-.95V32.98zM34.5 54.29h-5c-.52 0-.95.42-.95.95v1.38h6.89v-1.38C35.45 54.71 35.02 54.29 34.5 54.29z"/><rect width="4.53" height="18.98" x="29.74" y="35.31" fill="#e1e2e0"/><path fill="#d3d3d3" d="M50.83 32.98h-6.89v1.38c0 .52.42.95.95.95h5c.52 0 .95-.42.95-.95V32.98zM49.88 54.29h-5c-.52 0-.95.42-.95.95v1.38h6.89v-1.38C50.83 54.71 50.41 54.29 49.88 54.29z"/><rect width="4.53" height="18.98" x="45.12" y="35.31" fill="#e1e2e0"/><rect width="46.53" height="3.69" x="8.73" y="56.62" fill="#e1e2e0"/><rect width="46.53" height="6.65" x="8.73" y="26.33" fill="#f2f2f2"/><rect width="52.34" height="3.69" x="5.83" y="60.31" fill="#d3d3d3"/><polygon fill="#da4765" points="32 12.21 8.73 26.33 55.27 26.33"/><path fill="#f9f9f9" d="M31.72 20.84v2.91c-1.54-.13-2.78-1.36-2.91-2.91H31.72zM31.72 17.38v2.91h-2.91C28.95 18.75 30.18 17.52 31.72 17.38z"/><path fill="#b33254" d="M32,16.82c-2.07,0-3.75,1.68-3.75,3.75s1.68,3.75,3.75,3.75c2.07,0,3.75-1.68,3.75-3.75
					S34.07,16.82,32,16.82z M31.72,23.75c-1.54-0.13-2.78-1.36-2.91-2.91h2.91V23.75z M31.72,20.29h-2.91
					c0.13-1.54,1.36-2.78,2.91-2.91V20.29z M32.28,17.38c1.54,0.13,2.78,1.36,2.91,2.91h-2.91V17.38z M32.28,23.75v-2.91h2.91
					C35.05,22.39,33.82,23.62,32.28,23.75z"/><path fill="#f9f9f9" d="M35.19 20.84c-.13 1.54-1.37 2.78-2.91 2.91v-2.91H35.19zM35.19 20.29h-2.91v-2.91C33.82 17.52 35.05 18.75 35.19 20.29z"/><g><rect width="4.68" height="4.68" x="53.92" y="37.86" fill="#f9f9f9"/><rect width="4.68" height="4.68" x="53.92" y="47.06" fill="#f9f9f9"/><rect width="4.68" height="4.68" x="5.4" y="37.86" fill="#f9f9f9"/><rect width="4.68" height="4.68" x="5.4" y="47.06" fill="#f9f9f9"/></g></svg>